<?xml version="1.0" encoding="UTF-8" standalone="no"?>
<!DOCTYPE svg PUBLIC "-//W3C//DTD SVG 1.1//EN" "http://www.w3.org/Graphics/SVG/1.1/DTD/svg11.dtd">
<svg width="100%" height="100%" viewBox="0 0 1920 1080" version="1.1" xmlns="http://www.w3.org/2000/svg" xmlns:xlink="http://www.w3.org/1999/xlink" xml:space="preserve" xmlns:serif="http://www.serif.com/" style="fill-rule:evenodd;clip-rule:evenodd;stroke-linecap:round;stroke-linejoin:round;stroke-miterlimit:1.5;">
    <g transform="matrix(1.00609,0,0,1.02761,-11.8858,-26.6469)">
        <path d="M1790.07,496.165C1791.27,485.623 1787.56,475.114 1779.97,467.547C1772.38,459.979 1761.71,456.157 1750.93,457.138C1631.15,468.028 1302.65,497.896 1216.51,505.729C1204.2,506.848 1194.21,515.969 1192.22,527.918C1180.85,596.02 1144.03,816.436 1131.36,892.33C1130.24,899.028 1132.03,905.88 1136.28,911.237C1140.54,916.594 1146.88,919.971 1153.79,920.556C1251.91,928.861 1591.84,957.636 1701.75,966.94C1720.97,968.567 1738.02,954.882 1740.15,936.105C1750.44,845.439 1778.66,596.721 1790.07,496.165Z" style="fill:none;stroke:rgb(9,11,62);stroke-width:0.98px;"/>
    </g>
    <g transform="matrix(1.01852,0,0,1.01852,-33.7778,-17.3889)">
        <circle cx="1635" cy="696" r="27" style="fill:rgb(0,176,235);"/>
    </g>
    <g transform="matrix(2.97268,0,0,2.97268,-2993.52,-1124.06)">
        <text x="1516.18px" y="574.382px" style="font-family:'ArialMT', 'Arial', sans-serif;font-size:12px;">123456</text>
    </g>
</svg>
